<svg version="1.1" id="Layer_1" xmlns="http://www.w3.org/2000/svg" xmlns:xlink="http://www.w3.org/1999/xlink" x="0px" y="0px"
	 width="100%" viewBox="0 0 225 225" enable-background="new 0 0 225 225" xml:space="preserve">
<path fill="#FEFEFE" opacity="1.000000" stroke="none" 
	d="
M226.000000,86.000000 
	C226.000000,133.000000 226.000000,179.500000 226.000000,226.000000 
	C151.000000,226.000000 76.000000,226.000000 1.000000,226.000000 
	C1.000000,151.000000 1.000000,76.000000 1.000000,1.000000 
	C76.000000,1.000000 151.000000,1.000000 226.000000,1.000000 
	C226.000000,29.166666 226.000000,57.333332 226.000000,86.000000 
M124.646591,8.610277 
	C103.362709,1.780453 87.988091,11.954294 81.806290,36.958969 
	C64.309120,26.158556 50.297726,26.121166 38.639385,37.070915 
	C32.312050,43.013668 29.042961,50.396042 28.778376,59.191151 
	C28.517515,67.862534 31.886862,75.126526 37.257469,81.835793 
	C17.683573,85.666245 7.674654,95.624161 6.679425,111.760841 
	C6.243727,118.825249 7.991276,125.280067 11.962605,131.096924 
	C17.959589,139.880814 26.723913,143.941010 37.304462,144.984009 
	C23.275602,162.645325 28.811918,179.930801 37.545128,188.915085 
	C49.081470,200.783066 64.208199,201.194244 81.768059,190.050537 
	C87.105995,210.556915 96.025711,219.528549 111.917885,220.342117 
	C120.655197,220.789429 128.197021,218.019577 134.693344,212.114731 
	C141.240326,206.163834 144.048218,198.466629 144.973465,189.615829 
	C161.194977,202.872925 178.515015,199.065674 188.219482,190.073715 
	C193.518585,185.163666 196.891617,179.104874 197.905426,171.994141 
	C199.337448,161.950363 196.526581,152.980850 189.617615,145.257111 
	C210.167999,140.690857 220.170944,130.397552 220.408585,113.939087 
	C220.649948,97.222702 210.965225,86.946770 190.064804,81.742943 
	C200.787094,64.949715 200.902863,50.826321 190.225861,38.985928 
	C184.390259,32.514465 177.010529,29.207268 168.250244,28.808569 
	C159.416748,28.406536 151.942245,31.732466 144.888565,37.448418 
	C143.641083,23.805349 137.517227,14.233887 124.646591,8.610277 
z"/>
<path fill="#020202" opacity="1.000000" stroke="none" 
	d="
M125.018219,8.749962 
	C137.517227,14.233887 143.641083,23.805349 144.888565,37.448418 
	C151.942245,31.732466 159.416748,28.406536 168.250244,28.808569 
	C177.010529,29.207268 184.390259,32.514465 190.225861,38.985928 
	C200.902863,50.826321 200.787094,64.949715 190.064804,81.742943 
	C210.965225,86.946770 220.649948,97.222702 220.408585,113.939087 
	C220.170944,130.397552 210.167999,140.690857 189.617615,145.257111 
	C196.526581,152.980850 199.337448,161.950363 197.905426,171.994141 
	C196.891617,179.104874 193.518585,185.163666 188.219482,190.073715 
	C178.515015,199.065674 161.194977,202.872925 144.973465,189.615829 
	C144.048218,198.466629 141.240326,206.163834 134.693344,212.114731 
	C128.197021,218.019577 120.655197,220.789429 111.917885,220.342117 
	C96.025711,219.528549 87.105995,210.556915 81.768059,190.050537 
	C64.208199,201.194244 49.081470,200.783066 37.545128,188.915085 
	C28.811918,179.930801 23.275602,162.645325 37.304462,144.984009 
	C26.723913,143.941010 17.959589,139.880814 11.962605,131.096924 
	C7.991276,125.280067 6.243727,118.825249 6.679425,111.760841 
	C7.674654,95.624161 17.683573,85.666245 37.257469,81.835793 
	C31.886862,75.126526 28.517515,67.862534 28.778376,59.191151 
	C29.042961,50.396042 32.312050,43.013668 38.639385,37.070915 
	C50.297726,26.121166 64.309120,26.158556 81.806290,36.958969 
	C87.988091,11.954294 103.362709,1.780453 125.018219,8.749962 
M88.302544,71.197601 
	C86.183968,69.074753 84.103767,66.911774 81.937172,64.839127 
	C79.178864,62.200417 77.044273,59.512344 76.097023,55.441910 
	C74.099274,46.857246 66.420403,42.107475 57.637794,43.060390 
	C50.293526,43.857239 43.720394,50.548161 43.038898,57.920895 
	C42.232059,66.649658 47.222141,73.934761 55.676239,76.384323 
	C57.387978,76.880302 59.575062,76.903191 60.719162,78.001991 
	C68.350182,85.330879 75.757622,92.892586 84.133904,101.275612 
	C73.387245,101.275612 63.817955,101.416061 54.257996,101.179428 
	C51.787846,101.118286 49.089291,100.323654 46.939106,99.091881 
	C39.296886,94.713875 30.431871,95.940498 24.828396,102.513573 
	C19.430279,108.845757 19.424911,118.159882 24.815735,124.475121 
	C30.430275,131.052414 39.342918,132.380295 46.889950,127.799767 
	C48.139168,127.041580 49.470169,125.862999 50.777691,125.843613 
	C61.503639,125.684456 72.232979,125.753822 84.064590,125.753822 
	C75.733200,134.098740 68.291962,141.629593 60.719101,149.025681 
	C59.898594,149.827026 58.336021,149.935135 57.084469,150.217957 
	C47.896736,152.294205 42.434746,159.415146 43.024601,168.605423 
	C43.526646,176.427460 50.437603,183.446381 58.156441,183.973648 
	C67.519035,184.613190 74.862373,178.984222 76.853233,169.664581 
	C77.088791,168.561874 77.092552,167.150192 77.780670,166.443420 
	C85.250328,158.771057 92.835327,151.210983 101.315453,142.689133 
	C101.315453,152.907745 101.573341,161.692047 101.191032,170.448395 
	C101.033775,174.050232 100.041969,177.853058 98.478737,181.107681 
	C94.999039,188.352264 96.252434,196.687241 102.281723,201.997925 
	C108.014244,207.047211 116.834038,207.597366 123.067940,203.294525 
	C129.719421,198.703430 133.029968,189.984818 129.036179,183.183472 
	C125.435745,177.052048 125.735245,170.931351 125.694458,164.551163 
	C125.650597,157.690155 125.684547,150.828659 125.684547,143.499008 
	C126.755707,144.140289 127.061058,144.251480 127.270782,144.459198 
	C132.005524,149.148651 136.740601,153.837860 141.452820,158.549896 
	C145.734131,162.831039 149.871078,166.800079 151.516632,173.347427 
	C153.464890,181.099121 162.281082,185.261108 170.261108,183.880493 
	C177.317703,182.659653 183.486893,175.822372 183.973038,168.683594 
	C184.551346,160.191650 179.946289,152.953751 171.855820,150.962250 
	C167.723419,149.945053 164.787521,147.850967 161.985504,144.936981 
	C156.789703,139.533569 151.392868,134.323807 146.109161,129.004211 
	C145.275574,128.164963 144.596115,127.172653 143.416275,125.724388 
	C153.367157,125.724388 162.520035,125.515060 171.653900,125.840096 
	C174.770294,125.951004 178.094955,126.907547 180.879379,128.341782 
	C188.070374,132.045776 196.312485,130.901154 201.807495,124.897980 
	C207.138779,119.073677 207.693253,110.147453 203.120865,103.754738 
	C198.244965,96.937668 189.486755,93.979462 182.484406,98.203949 
	C177.468857,101.229805 172.553940,101.249298 167.311264,101.269234 
	C160.479904,101.295204 153.648224,101.295967 146.817032,101.252556 
	C145.826157,101.246269 144.837219,100.934074 143.326187,100.673592 
	C150.917557,93.119568 157.947098,86.010742 165.144363,79.075958 
	C166.329041,77.934494 168.181137,77.254837 169.841995,76.876907 
	C178.871048,74.822388 184.516052,67.574295 183.978012,58.480984 
	C183.513596,50.632046 176.726059,43.668324 168.922516,43.034676 
	C159.611191,42.278595 152.163895,47.937084 150.145004,57.250450 
	C149.874969,58.496105 149.726181,60.030567 148.927429,60.858135 
	C141.595230,68.454651 134.131912,75.924614 125.684471,84.465027 
	C125.684471,73.649422 125.492493,64.387459 125.795990,55.141762 
	C125.892914,52.188980 126.814125,49.019318 128.205978,46.399265 
	C132.193848,38.892345 130.844147,30.121904 124.404015,24.734367 
	C118.067085,19.433163 108.645699,19.500458 102.414085,24.891413 
	C96.020760,30.422260 94.643936,39.171860 99.002518,46.556477 
	C99.753036,47.828049 101.120171,49.095428 101.140594,50.381607 
	C101.313202,61.252510 101.239098,72.127327 101.239098,83.319389 
	C100.315407,82.880196 99.990204,82.813896 99.792610,82.618530 
	C96.120110,78.987495 92.462791,75.341095 88.302544,71.197601 
z"/>
<path fill="#FBFBFB" opacity="1.000000" stroke="none" 
	d="
M88.552414,71.447769 
	C92.462791,75.341095 96.120110,78.987495 99.792610,82.618530 
	C99.990204,82.813896 100.315407,82.880196 101.239098,83.319389 
	C101.239098,72.127327 101.313202,61.252510 101.140594,50.381607 
	C101.120171,49.095428 99.753036,47.828049 99.002518,46.556477 
	C94.643936,39.171860 96.020760,30.422260 102.414085,24.891413 
	C108.645699,19.500458 118.067085,19.433163 124.404015,24.734367 
	C130.844147,30.121904 132.193848,38.892345 128.205978,46.399265 
	C126.814125,49.019318 125.892914,52.188980 125.795990,55.141762 
	C125.492493,64.387459 125.684471,73.649422 125.684471,84.465027 
	C134.131912,75.924614 141.595230,68.454651 148.927429,60.858135 
	C149.726181,60.030567 149.874969,58.496105 150.145004,57.250450 
	C152.163895,47.937084 159.611191,42.278595 168.922516,43.034676 
	C176.726059,43.668324 183.513596,50.632046 183.978012,58.480984 
	C184.516052,67.574295 178.871048,74.822388 169.841995,76.876907 
	C168.181137,77.254837 166.329041,77.934494 165.144363,79.075958 
	C157.947098,86.010742 150.917557,93.119568 143.326187,100.673592 
	C144.837219,100.934074 145.826157,101.246269 146.817032,101.252556 
	C153.648224,101.295967 160.479904,101.295204 167.311264,101.269234 
	C172.553940,101.249298 177.468857,101.229805 182.484406,98.203949 
	C189.486755,93.979462 198.244965,96.937668 203.120865,103.754738 
	C207.693253,110.147453 207.138779,119.073677 201.807495,124.897980 
	C196.312485,130.901154 188.070374,132.045776 180.879379,128.341782 
	C178.094955,126.907547 174.770294,125.951004 171.653900,125.840096 
	C162.520035,125.515060 153.367157,125.724388 143.416275,125.724388 
	C144.596115,127.172653 145.275574,128.164963 146.109161,129.004211 
	C151.392868,134.323807 156.789703,139.533569 161.985504,144.936981 
	C164.787521,147.850967 167.723419,149.945053 171.855820,150.962250 
	C179.946289,152.953751 184.551346,160.191650 183.973038,168.683594 
	C183.486893,175.822372 177.317703,182.659653 170.261108,183.880493 
	C162.281082,185.261108 153.464890,181.099121 151.516632,173.347427 
	C149.871078,166.800079 145.734131,162.831039 141.452820,158.549896 
	C136.740601,153.837860 132.005524,149.148651 127.270782,144.459198 
	C127.061058,144.251480 126.755707,144.140289 125.684547,143.499008 
	C125.684547,150.828659 125.650597,157.690155 125.694458,164.551163 
	C125.735245,170.931351 125.435745,177.052048 129.036179,183.183472 
	C133.029968,189.984818 129.719421,198.703430 123.067940,203.294525 
	C116.834038,207.597366 108.014244,207.047211 102.281723,201.997925 
	C96.252434,196.687241 94.999039,188.352264 98.478737,181.107681 
	C100.041969,177.853058 101.033775,174.050232 101.191032,170.448395 
	C101.573341,161.692047 101.315453,152.907745 101.315453,142.689133 
	C92.835327,151.210983 85.250328,158.771057 77.780670,166.443420 
	C77.092552,167.150192 77.088791,168.561874 76.853233,169.664581 
	C74.862373,178.984222 67.519035,184.613190 58.156441,183.973648 
	C50.437603,183.446381 43.526646,176.427460 43.024601,168.605423 
	C42.434746,159.415146 47.896736,152.294205 57.084469,150.217957 
	C58.336021,149.935135 59.898594,149.827026 60.719101,149.025681 
	C68.291962,141.629593 75.733200,134.098740 84.064590,125.753822 
	C72.232979,125.753822 61.503639,125.684456 50.777691,125.843613 
	C49.470169,125.862999 48.139168,127.041580 46.889950,127.799767 
	C39.342918,132.380295 30.430275,131.052414 24.815735,124.475121 
	C19.424911,118.159882 19.430279,108.845757 24.828396,102.513573 
	C30.431871,95.940498 39.296886,94.713875 46.939106,99.091881 
	C49.089291,100.323654 51.787846,101.118286 54.257996,101.179428 
	C63.817955,101.416061 73.387245,101.275612 84.133904,101.275612 
	C75.757622,92.892586 68.350182,85.330879 60.719162,78.001991 
	C59.575062,76.903191 57.387978,76.880302 55.676239,76.384323 
	C47.222141,73.934761 42.232059,66.649658 43.038898,57.920895 
	C43.720394,50.548161 50.293526,43.857239 57.637794,43.060390 
	C66.420403,42.107475 74.099274,46.857246 76.097023,55.441910 
	C77.044273,59.512344 79.178864,62.200417 81.937172,64.839127 
	C84.103767,66.911774 86.183968,69.074753 88.552414,71.447769 
z"/>
</svg>